<?xml version="1.0" standalone="no"?>
<!DOCTYPE svg PUBLIC "-//W3C//DTD SVG 20010904//EN"
 "http://www.w3.org/TR/2001/REC-SVG-20010904/DTD/svg10.dtd">
<svg version="1.0" xmlns="http://www.w3.org/2000/svg"
 width="33.000000pt" height="13.000000pt" viewBox="0 0 333.000000 193.000000"
 preserveAspectRatio="xMidYMid meet">
<metadata>
Created by potrace 1.16, written by Peter Selinger 2001-2019
</metadata>
<g transform="translate(0.000000,193.000000) scale(0.100000,-0.100000)"
fill="#000000" stroke="none">
<path d="M1485 1804 c-89 -13 -234 -46 -302 -69 -120 -39 -329 -147 -424 -219
-101 -77 -239 -203 -239 -220 0 -13 251 -266 264 -266 4 0 45 35 90 78 455
430 1137 430 1592 0 45 -43 86 -78 90 -78 14 0 264 253 264 267 0 16 -138 143
-239 219 -95 72 -304 180 -423 219 -157 51 -260 67 -458 70 -102 2 -198 1
-215 -1z"/>
<path d="M793 1665 c-119 -19 -214 -51 -347 -117 -121 -60 -163 -90 -295 -215
l-56 -52 105 -106 106 -106 73 71 c41 38 82 72 93 76 19 6 24 29 8 39 -5 3
-10 21 -10 39 0 28 12 44 78 107 100 97 198 176 292 233 79 49 78 50 -47 31z"/>
<path d="M2500 1635 c95 -60 194 -139 293 -234 64 -62 77 -80 77 -106 0 -19
-8 -39 -20 -50 -20 -18 -20 -18 8 -35 15 -9 57 -45 92 -79 l64 -62 105 106
106 106 -56 52 c-132 125 -174 155 -295 215 -136 68 -251 105 -358 117 -33 4
-66 9 -75 12 -9 3 18 -16 59 -42z"/>
<path d="M1532 1300 c-220 -31 -421 -130 -585 -289 l-78 -75 138 -138 c76 -76
142 -138 147 -138 5 0 41 30 80 68 128 121 264 176 436 176 172 0 308 -55 436
-176 39 -38 75 -68 80 -68 5 0 71 62 147 138 l138 138 -78 75 c-192 185 -421
284 -683 294 -63 2 -143 0 -178 -5z"/>
<path d="M500 1116 c-30 -24 -71 -60 -90 -80 l-34 -36 104 -105 c58 -58 109
-105 114 -105 5 0 32 21 61 48 69 63 95 82 124 89 21 5 13 15 -90 119 -63 63
-118 114 -124 114 -5 0 -35 -20 -65 -44z"/>
<path d="M2650 1045 c-110 -110 -112 -113 -89 -125 29 -16 39 -24 104 -82 28
-27 56 -48 61 -48 5 0 56 47 114 105 l104 105 -48 49 c-27 28 -68 63 -91 80
l-42 30 -113 -114z"/>
<path d="M799 837 c-20 -12 -59 -44 -88 -72 l-51 -50 167 -168 168 -167 89 89
89 90 -149 150 c-99 101 -155 151 -169 150 -11 0 -36 -11 -56 -22z"/>
<path d="M2310 705 l-155 -155 85 -85 85 -85 167 167 168 168 -52 51 c-48 45
-118 94 -136 94 -4 0 -77 -70 -162 -155z"/>
<path d="M1546 774 c-84 -20 -168 -68 -244 -140 l-67 -63 218 -218 217 -218
218 218 217 218 -67 63 c-143 134 -315 183 -492 140z"/>
</g>
</svg>
